<svg xmlns="http://www.w3.org/2000/svg" xmlns:xlink="http://www.w3.org/1999/xlink" width="200" zoomAndPan="magnify" viewBox="0 0 150 149.999998" height="200" preserveAspectRatio="xMidYMid meet" version="1.0"><defs><g/></defs><g fill="#131836" fill-opacity="1"><g transform="translate(11.406671, 88.493345)"><g><path d="M 17.578125 -4.5 L 17.578125 0 L 2.625 0 L 2.625 -23.6875 L 17.109375 -23.6875 L 17.109375 -19.1875 L 7.8125 -19.1875 L 7.8125 -14.3125 L 16.421875 -14.3125 L 16.421875 -9.96875 L 7.8125 -9.96875 L 7.8125 -4.5 Z M 17.578125 -4.5 "/></g></g></g><g fill="#131836" fill-opacity="1"><g transform="translate(30.589407, 88.493345)"><g><path d="M 7.8125 0.203125 C 5.8125 0.203125 4.414062 -0.171875 3.625 -0.921875 C 2.84375 -1.671875 2.453125 -2.890625 2.453125 -4.578125 L 2.453125 -25.953125 L 7.40625 -25.953125 L 7.40625 -5.765625 C 7.40625 -4.972656 7.519531 -4.429688 7.75 -4.140625 C 7.976562 -3.859375 8.375 -3.71875 8.9375 -3.71875 C 9.332031 -3.71875 9.664062 -3.753906 9.9375 -3.828125 L 9.9375 0 C 9.300781 0.132812 8.59375 0.203125 7.8125 0.203125 Z M 7.8125 0.203125 "/></g></g></g><g fill="#131836" fill-opacity="1"><g transform="translate(40.965832, 88.493345)"><g><path d="M 18.53125 -10.6875 C 18.53125 -9.84375 18.476562 -8.988281 18.375 -8.125 L 6.484375 -7.375 C 6.578125 -6.050781 7.019531 -5.082031 7.8125 -4.46875 C 8.613281 -3.851562 9.832031 -3.546875 11.46875 -3.546875 C 12.5625 -3.546875 13.691406 -3.675781 14.859375 -3.9375 C 16.035156 -4.195312 16.941406 -4.5 17.578125 -4.84375 L 17.578125 -0.953125 C 16.984375 -0.609375 16.035156 -0.304688 14.734375 -0.046875 C 13.441406 0.210938 12.035156 0.34375 10.515625 0.34375 C 8.535156 0.34375 6.890625 0.0625 5.578125 -0.5 C 4.273438 -1.070312 3.273438 -2.054688 2.578125 -3.453125 C 1.878906 -4.859375 1.53125 -6.78125 1.53125 -9.21875 C 1.53125 -11.65625 1.882812 -13.570312 2.59375 -14.96875 C 3.300781 -16.363281 4.3125 -17.347656 5.625 -17.921875 C 6.945312 -18.492188 8.625 -18.78125 10.65625 -18.78125 C 12.695312 -18.78125 14.296875 -18.445312 15.453125 -17.78125 C 16.617188 -17.125 17.421875 -16.207031 17.859375 -15.03125 C 18.304688 -13.863281 18.53125 -12.414062 18.53125 -10.6875 Z M 14.03125 -11.40625 C 14.03125 -12.5625 13.800781 -13.457031 13.34375 -14.09375 C 12.894531 -14.738281 12 -15.0625 10.65625 -15.0625 C 9.15625 -15.0625 8.101562 -14.734375 7.5 -14.078125 C 6.894531 -13.429688 6.554688 -12.347656 6.484375 -10.828125 Z M 14.03125 -11.40625 "/></g></g></g><g fill="#131836" fill-opacity="1"><g transform="translate(60.96776, 88.493345)"><g><path d="M 10.203125 -18.75 C 13.210938 -18.75 15.347656 -18.257812 16.609375 -17.28125 C 17.867188 -16.300781 18.5 -14.796875 18.5 -12.765625 L 18.5 0 L 14.0625 0 L 13.59375 -2.15625 C 13.195312 -1.425781 12.484375 -0.828125 11.453125 -0.359375 C 10.421875 0.109375 9.175781 0.34375 7.71875 0.34375 C 5.644531 0.34375 4.070312 -0.117188 3 -1.046875 C 1.9375 -1.984375 1.40625 -3.398438 1.40625 -5.296875 C 1.40625 -7.367188 2.03125 -8.851562 3.28125 -9.75 C 4.53125 -10.644531 6.429688 -11.09375 8.984375 -11.09375 L 13.546875 -11.09375 L 13.546875 -11.578125 C 13.546875 -12.347656 13.441406 -12.945312 13.234375 -13.375 C 13.035156 -13.8125 12.648438 -14.125 12.078125 -14.3125 C 11.515625 -14.507812 10.695312 -14.609375 9.625 -14.609375 C 8.21875 -14.609375 6.910156 -14.492188 5.703125 -14.265625 L 5.703125 -18.46875 C 7.203125 -18.65625 8.703125 -18.75 10.203125 -18.75 Z M 8.984375 -3.453125 C 10.078125 -3.453125 11.023438 -3.648438 11.828125 -4.046875 C 12.640625 -4.441406 13.210938 -4.957031 13.546875 -5.59375 L 13.546875 -7.75 L 9.734375 -7.75 C 8.453125 -7.75 7.554688 -7.585938 7.046875 -7.265625 C 6.535156 -6.953125 6.28125 -6.351562 6.28125 -5.46875 C 6.28125 -4.757812 6.492188 -4.242188 6.921875 -3.921875 C 7.359375 -3.609375 8.046875 -3.453125 8.984375 -3.453125 Z M 8.984375 -3.453125 "/></g></g></g><g fill="#131836" fill-opacity="1"><g transform="translate(82.061943, 88.493345)"><g><path d="M 13.21875 -18.78125 C 15.425781 -18.78125 16.992188 -18.273438 17.921875 -17.265625 C 18.859375 -16.265625 19.328125 -14.707031 19.328125 -12.59375 L 19.328125 0 L 14.375 0 L 14.375 -11.296875 C 14.375 -12.597656 14.164062 -13.5 13.75 -14 C 13.34375 -14.5 12.550781 -14.75 11.375 -14.75 C 10.300781 -14.75 9.445312 -14.554688 8.8125 -14.171875 C 8.175781 -13.785156 7.71875 -13.132812 7.4375 -12.21875 L 7.4375 0 L 2.5 0 L 2.5 -18.4375 L 7.4375 -18.4375 L 7.4375 -16.21875 C 7.914062 -17.0625 8.65625 -17.695312 9.65625 -18.125 C 10.65625 -18.5625 11.84375 -18.78125 13.21875 -18.78125 Z M 13.21875 -18.78125 "/></g></g></g><g fill="#131836" fill-opacity="1"><g transform="translate(103.77052, 88.493345)"><g><path d="M 10.578125 0.34375 C 8.554688 0.34375 6.890625 0.0625 5.578125 -0.5 C 4.273438 -1.070312 3.273438 -2.054688 2.578125 -3.453125 C 1.878906 -4.859375 1.53125 -6.78125 1.53125 -9.21875 C 1.53125 -11.65625 1.878906 -13.570312 2.578125 -14.96875 C 3.273438 -16.363281 4.273438 -17.347656 5.578125 -17.921875 C 6.890625 -18.492188 8.554688 -18.78125 10.578125 -18.78125 C 12.585938 -18.78125 14.242188 -18.492188 15.546875 -17.921875 C 16.859375 -17.347656 17.859375 -16.363281 18.546875 -14.96875 C 19.242188 -13.570312 19.59375 -11.65625 19.59375 -9.21875 C 19.59375 -6.78125 19.242188 -4.859375 18.546875 -3.453125 C 17.859375 -2.054688 16.859375 -1.070312 15.546875 -0.5 C 14.242188 0.0625 12.585938 0.34375 10.578125 0.34375 Z M 10.578125 -3.40625 C 11.609375 -3.40625 12.40625 -3.582031 12.96875 -3.9375 C 13.539062 -4.289062 13.945312 -4.878906 14.1875 -5.703125 C 14.425781 -6.523438 14.546875 -7.695312 14.546875 -9.21875 C 14.546875 -10.71875 14.421875 -11.890625 14.171875 -12.734375 C 13.921875 -13.578125 13.507812 -14.179688 12.9375 -14.546875 C 12.363281 -14.910156 11.578125 -15.09375 10.578125 -15.09375 C 9.554688 -15.09375 8.757812 -14.910156 8.1875 -14.546875 C 7.625 -14.179688 7.222656 -13.582031 6.984375 -12.75 C 6.742188 -11.914062 6.625 -10.738281 6.625 -9.21875 C 6.625 -7.71875 6.75 -6.550781 7 -5.71875 C 7.25 -4.882812 7.648438 -4.289062 8.203125 -3.9375 C 8.765625 -3.582031 9.554688 -3.40625 10.578125 -3.40625 Z M 10.578125 -3.40625 "/></g></g></g><g fill="#131836" fill-opacity="1"><g transform="translate(124.898827, 88.493345)"><g><path d="M 13.171875 -18.78125 L 13.046875 -14.375 L 12.5625 -14.375 C 11.269531 -14.375 10.15625 -14.078125 9.21875 -13.484375 C 8.28125 -12.890625 7.6875 -11.890625 7.4375 -10.484375 L 7.4375 0 L 2.5 0 L 2.5 -18.4375 L 7.4375 -18.4375 L 7.4375 -15.125 C 7.96875 -16.507812 8.679688 -17.460938 9.578125 -17.984375 C 10.472656 -18.515625 11.546875 -18.78125 12.796875 -18.78125 Z M 13.171875 -18.78125 "/></g></g></g><path stroke-linecap="round" transform="matrix(0.749987, 0.00443756, -0.00443756, 0.749987, 53.648761, 49.785054)" fill="none" stroke-linejoin="miter" d="M 4.30891 11.776932 C 20.932545 0.0533677 37.552756 0.0748222 54.174751 11.841265 " stroke="#e37447" stroke-width="6" stroke-opacity="1" stroke-miterlimit="4"/></svg>